<svg version="1.2" xmlns="http://www.w3.org/2000/svg" viewBox="0 0 300 62" width="300" height="62">
	<title>dcSpark_logo-svg</title>
	<style>
		.s0 { fill: #ff931e } 
		.s1 { fill: #ffffff } 
		.s2 { fill: #4f3d90 } 
	</style>
	<g id="Layer">
		<g id="Layer">
			<g id="Layer">
				<g id="Layer">
					<path id="Layer" fill-rule="evenodd" class="s0" d="m87.2 28.2q0-5.3 3-8.3 3-3.1 8-3.1 1.6 0 4 0.4 2.3 0.3 4.9 1.4v-15.4h6.8v45.5h-6.1l-0.7-3.1q-3.2 2-5.5 2.7-2.2 0.7-3.9 0.7-4.9 0-7.7-2.8-2.8-2.7-2.8-8.6v-9.4zm6.7 8.9q0 3.2 1.4 4.4 1.4 1.2 3.4 1.2 0.9 0 1.9-0.3 1.1-0.2 2.2-0.7 1.2-0.4 2.3-1 1.1-0.6 2-1.2v-14.5q-2.2-0.8-4.1-1.3-1.9-0.5-3.7-0.5-2.3 0-3.8 1.3-1.6 1.4-1.6 4.5c0 0 0 8.1 0 8.1z"/>
					<path id="Layer" class="s0" d="m143.8 44.8q-2.6 2.6-5.4 3.4-2.9 0.8-5.7 0.8-2.7 0-5.1-0.7-2.3-0.8-4-2.3-1.7-1.4-2.7-3.5-1-2.1-1-4.7v-9.4q0-2.8 1.1-5 1-2.1 2.8-3.6 1.8-1.4 4.1-2.2 2.3-0.8 4.7-0.8 1.4 0 2.8 0.2 1.5 0.2 2.9 0.6 1.5 0.4 2.8 1.2 1.4 0.8 2.7 2.1l-4 5q-2.1-1.9-3.8-2.4-1.7-0.5-3-0.5-1 0.1-2.2 0.4-1.1 0.3-2.1 1.1-0.9 0.8-1.5 2-0.6 1.2-0.6 3v6.8q0 1.7 0.5 3 0.6 1.2 1.5 2 0.9 0.8 2 1.1 1.1 0.3 2.3 0.4 1.4 0 3.3-0.6 1.9-0.6 3.4-2.1z"/>
					<path id="Layer" class="s1" d="m179.6 36.3q0 3-1.2 5.4-1.2 2.4-3.3 4-2.1 1.7-5.1 2.5-3 0.9-6.5 0.9-4.7 0-8.8-1.3-4.1-1.3-7.9-4.4l4.1-5.3q2.9 2.1 6.1 3.3 3.2 1.1 6.4 1.1 4.3 0 6.5-1.7 2.1-1.8 2.1-4.4 0-1.9-0.9-3-0.8-1.1-2.3-1.9-1.5-0.8-3.3-1.2-1.9-0.5-3.9-1-2.6-0.5-5-1.4-2.4-0.9-4.2-2.3-1.8-1.5-2.9-3.5-1.1-2.1-1.1-5.1 0-2.8 1-5.1 1-2.4 2.9-4.1 1.9-1.7 4.6-2.7 2.7-1 6-1 3.9 0 7.8 0.8 3.8 0.8 7.3 3l-3.2 6q-2.9-1.8-5.8-2.5-2.9-0.7-5.7-0.7-1.6 0-2.9 0.4-1.4 0.4-2.4 1.1-1.1 0.8-1.7 2-0.7 1.1-0.7 2.7 0 1.6 0.9 2.7 0.8 1.1 2.1 1.8 1.4 0.7 3.2 1.2 1.7 0.5 3.6 0.9 3.1 0.7 5.7 1.6 2.7 1 4.5 2.5 1.9 1.5 2.9 3.6 1.2 2 1.1 5.1z"/>
					<path id="Layer" fill-rule="evenodd" class="s1" d="m211.6 37.8q0 5.2-2.9 8.3-2.9 3-8.2 3-1.6 0-3.9-0.3-2.3-0.4-5-1.6v14.1h-6.7v-44.1h6.1l0.6 3.1q3.2-1.9 5.5-2.7 2.3-0.7 3.9-0.7 4.9 0 7.7 2.8 2.9 2.7 2.9 8.6zm-6.8-8.9q0-3.2-1.4-4.4-1.3-1.1-3.4-1.1-0.8 0-1.9 0.2-1.1 0.3-2.2 0.7-1.1 0.5-2.3 1-1.1 0.6-2 1.2v14.4q2.5 1.1 4.3 1.5 1.8 0.3 3.6 0.4 1-0.1 2-0.3 1-0.3 1.8-0.9 0.7-0.7 1.1-1.8 0.4-1 0.4-2.6c0 0 0-8.3 0-8.3z"/>
					<path id="Layer" fill-rule="evenodd" class="s1" d="m236.9 45.8q-3.4 1.9-5.7 2.6-2.4 0.6-4.3 0.6-4.7-0.1-7.4-2.6-2.7-2.5-2.7-7 0-2.6 1.2-4.4 1.1-1.8 2.8-2.9 1.7-1.1 3.8-1.6 2-0.5 3.7-0.5h8.7v-1.9q0-2.8-1.6-4-1.6-1.2-4.9-1.2-1.6 0-3.9 0.5-2.3 0.4-4.7 2.3l-3.1-5q3.2-2.4 6.4-3.1 3.2-0.8 5.9-0.8 6.5 0 9.6 2.9 3 2.9 3 8.7v20.3h-6.1l-0.5-2.7zm0.1-10.6h-7.6q-0.9-0.1-1.8 0.1-1 0.1-1.8 0.5-0.8 0.4-1.3 1.2-0.6 0.8-0.6 2.1 0 1.8 1.3 2.8 1.3 1 3.4 1 1.1 0 2.3-0.3 1.1-0.3 2.2-0.7 1.1-0.4 2.1-0.9 1-0.6 1.8-1z"/>
					<path id="Layer" class="s1" d="m269 23.8q-4.2 0.4-7 1.4-2.8 1-4.6 2.2v21.3h-6.7v-31.5h6.1l0.5 4.6h0.1q0.8-0.8 2.1-1.7 1.3-0.9 2.9-1.6 1.5-0.8 3.2-1.3 1.7-0.4 3.4-0.4c0 0 0 7 0 7z"/>
					<path id="Layer" class="s1" d="m272.4 48.7v-45.5h6.7v24.1h3.7q1.9 0 3.2-0.8 1.4-0.8 2.5-3l3.3-6.4h7.5l-3.8 7.9q-0.9 1.9-1.9 3.2-1 1.2-2.9 1.9 1.3 0.5 2.2 1.2 0.9 0.8 1.5 1.6 0.6 0.9 0.9 1.9 0.4 1.1 0.7 2.1l4 11.8h-7.5l-3.2-10.2q-0.9-2.8-2.3-3.8-1.3-1-3.8-1h-4.1v15z"/>
				</g>
			</g>
			<path id="Layer" class="s2" d="m35.6 27.8z"/>
			<path id="Layer" class="s2" d="m35.6 44z"/>
			<path id="Layer" class="s1" d="m28.3 0v24.4l-22.1-10.3-3.1 6.6-3.1 6.7 18.3 8.5-18.3 8.5 3.1 6.7 3.1 6.6 22.1-10.3 7.3-3.4 7.4-3.4v-1.3-6.8-1.3-6.8-24.4z"/>
			<path id="Layer" class="s0" d="m71.3 27.4l-6.2-13.3-22.1 10.3v14.9 1.3l-7.4 3.4 7.4 3.4 22.1 10.3 3.1-6.6 3.1-6.7-18.3-8.5z"/>
		</g>
	</g>
</svg>