<svg xmlns="http://www.w3.org/2000/svg" width="164" height="40" viewBox="0 0 164 40" fill="none"><script xmlns=""/>
  <path d="M132.244 33.593C131.947 33.5123 131.67 33.3709 131.431 33.1776L131.737 32.4893C131.953 32.6554 132.196 32.7834 132.455 32.8678C132.729 32.964 133.018 33.0134 133.309 33.014C133.663 33.014 133.927 32.9579 134.101 32.8436C134.18 32.7988 134.246 32.7335 134.293 32.6546C134.339 32.5756 134.363 32.4859 134.363 32.3944C134.365 32.331 134.352 32.2679 134.327 32.2097C134.302 32.1515 134.264 32.0995 134.217 32.0575C134.109 31.9632 133.983 31.8923 133.846 31.8494C133.697 31.7997 133.492 31.7429 133.233 31.679C132.934 31.6118 132.64 31.5255 132.352 31.4205C132.128 31.3353 131.929 31.196 131.772 31.0149C131.602 30.8048 131.517 30.5392 131.531 30.2694C131.529 30.0139 131.603 29.7635 131.745 29.5511C131.906 29.3206 132.131 29.142 132.392 29.037C132.727 28.8995 133.088 28.8335 133.45 28.8434C133.739 28.8431 134.027 28.8795 134.307 28.9518C134.565 29.0145 134.812 29.1206 135.035 29.2655L134.755 29.9528C134.55 29.8326 134.331 29.7389 134.103 29.674C133.888 29.6116 133.666 29.579 133.442 29.5772C133.093 29.5772 132.833 29.6363 132.664 29.7544C132.584 29.8043 132.519 29.8738 132.475 29.9562C132.43 30.0386 132.407 30.1311 132.408 30.2249C132.406 30.2878 132.419 30.3503 132.444 30.4079C132.469 30.4655 132.507 30.5167 132.554 30.5579C132.663 30.6508 132.789 30.7207 132.926 30.7632C133.076 30.8125 133.28 30.8697 133.538 30.9326C133.834 30.9975 134.124 31.0829 134.408 31.1882C134.631 31.2749 134.83 31.414 134.988 31.5938C135.158 31.8002 135.244 32.0627 135.23 32.3296C135.233 32.584 135.158 32.8333 135.016 33.044C134.853 33.2739 134.627 33.4515 134.366 33.5552C134.028 33.6923 133.666 33.7582 133.302 33.7488C132.943 33.7495 132.587 33.6969 132.244 33.593Z" fill="white"/>
  <path d="M139.234 33.483C139.126 33.5683 139.002 33.6309 138.87 33.6669C138.723 33.7082 138.57 33.7287 138.417 33.7279C138.018 33.7279 137.71 33.6234 137.492 33.4143C137.273 33.2051 137.166 32.9012 137.166 32.5023V30.751H136.567V30.0733H137.166V29.2368H138.016V30.0675H138.989V30.7452H138.016V32.4752C138.006 32.6219 138.053 32.7669 138.146 32.8808C138.194 32.9294 138.253 32.967 138.318 32.991C138.382 33.0151 138.451 33.025 138.52 33.0202C138.691 33.0268 138.859 32.9738 138.996 32.8702L139.234 33.483Z" fill="white"/>
  <path d="M144.476 30.0429V33.6801H143.667V33.2164C143.529 33.3812 143.355 33.5109 143.157 33.5949C142.949 33.6841 142.724 33.7292 142.497 33.7275C142.011 33.7275 141.629 33.5923 141.351 33.3219C141.072 33.0515 140.933 32.651 140.932 32.1205V30.0429H141.783V32.0043C141.783 32.3315 141.857 32.5755 142.004 32.7362C142.085 32.8194 142.183 32.8841 142.292 32.9259C142.401 32.9676 142.517 32.9855 142.633 32.9782C142.767 32.9848 142.901 32.963 143.025 32.9143C143.15 32.8656 143.263 32.791 143.357 32.6955C143.536 32.5064 143.626 32.235 143.626 31.8813V30.0419L144.476 30.0429Z" fill="white"/>
  <path d="M150.167 28.6261V33.6797H149.351V33.2053C149.212 33.3759 149.034 33.509 148.831 33.5926C148.613 33.6809 148.38 33.725 148.146 33.7223C147.817 33.7271 147.493 33.6475 147.204 33.4909C146.927 33.3384 146.7 33.1105 146.547 32.8336C146.385 32.5338 146.303 32.1968 146.309 31.8558C146.303 31.5159 146.385 31.1802 146.547 30.8818C146.7 30.6063 146.928 30.3797 147.204 30.2284C147.493 30.0714 147.817 29.9917 148.146 29.997C148.372 29.9943 148.596 30.0358 148.806 30.119C149.003 30.1991 149.178 30.3252 149.316 30.4869V28.6261H150.167ZM148.8 32.8587C148.963 32.7648 149.097 32.6265 149.186 32.4599C149.281 32.2742 149.33 32.0689 149.33 31.8606C149.33 31.6524 149.281 31.4471 149.186 31.2613C149.097 31.0952 148.963 30.9573 148.8 30.8635C148.63 30.7713 148.441 30.7231 148.248 30.7231C148.056 30.7231 147.866 30.7713 147.697 30.8635C147.534 30.9573 147.4 31.0952 147.31 31.2613C147.216 31.4471 147.167 31.6524 147.167 31.8606C147.167 32.0689 147.216 32.2742 147.31 32.4599C147.399 32.6265 147.533 32.7648 147.697 32.8587C147.867 32.9502 148.056 32.9982 148.248 32.9982C148.441 32.9982 148.63 32.9502 148.8 32.8587Z" fill="white"/>
  <path d="M152.344 29.2967C152.295 29.2499 152.255 29.1935 152.228 29.1309C152.201 29.0683 152.188 29.0008 152.188 28.9327C152.188 28.8645 152.201 28.7971 152.228 28.7345C152.255 28.6719 152.295 28.6154 152.344 28.5687C152.449 28.4708 152.588 28.418 152.731 28.4215C152.873 28.4176 153.011 28.4678 153.118 28.5619C153.168 28.6051 153.208 28.6589 153.236 28.7195C153.263 28.7801 153.276 28.846 153.275 28.9123C153.276 28.9824 153.264 29.052 153.237 29.1169C153.211 29.1819 153.172 29.2407 153.122 29.2899C153.07 29.3409 153.009 29.3809 152.942 29.4074C152.875 29.4338 152.802 29.4462 152.73 29.4438C152.587 29.4471 152.449 29.3943 152.344 29.2967ZM152.304 30.0431H153.154V33.6803H152.304V30.0431Z" fill="white"/>
  <path d="M155.93 33.4896C155.642 33.3373 155.402 33.1072 155.238 32.8254C155.076 32.5308 154.991 32.1997 154.991 31.8631C154.991 31.5266 155.076 31.1955 155.238 30.9008C155.403 30.6209 155.643 30.3923 155.93 30.2406C156.239 30.084 156.58 30.0024 156.926 30.0024C157.272 30.0024 157.614 30.084 157.923 30.2406C158.21 30.3919 158.449 30.6206 158.613 30.9008C158.776 31.1953 158.862 31.5265 158.862 31.8631C158.862 32.1998 158.776 32.531 158.613 32.8254C158.45 33.1073 158.211 33.3375 157.923 33.4896C157.614 33.6462 157.272 33.7278 156.926 33.7278C156.58 33.7278 156.239 33.6462 155.93 33.4896ZM157.698 32.6851C157.896 32.4564 158.004 32.1643 158.004 31.8622C158.004 31.56 157.896 31.2679 157.698 31.0393C157.598 30.9363 157.478 30.8553 157.344 30.8013C157.211 30.7473 157.068 30.7215 156.925 30.7256C156.781 30.7208 156.638 30.7463 156.505 30.8003C156.371 30.8543 156.251 30.9357 156.151 31.0393C155.956 31.269 155.849 31.5607 155.849 31.8622C155.849 32.1636 155.956 32.4553 156.151 32.6851C156.251 32.7886 156.371 32.87 156.505 32.924C156.638 32.9781 156.781 33.0035 156.925 32.9987C157.068 33.0028 157.211 32.977 157.344 32.923C157.478 32.8691 157.598 32.788 157.698 32.6851Z" fill="white"/>
  <path d="M160.958 33.6115C160.717 33.5542 160.488 33.4559 160.281 33.3211L160.608 32.6734C160.789 32.7908 160.987 32.8793 161.196 32.9358C161.416 32.9996 161.643 33.0322 161.873 33.0326C162.381 33.0326 162.635 32.8987 162.635 32.6308C162.636 32.5714 162.618 32.5131 162.583 32.4651C162.548 32.4171 162.498 32.382 162.441 32.3655C162.239 32.2979 162.03 32.2499 161.818 32.2223C161.571 32.1883 161.327 32.1358 161.087 32.0654C160.899 32.0072 160.73 31.9003 160.597 31.7556C160.451 31.5852 160.376 31.3643 160.39 31.1399C160.386 30.9767 160.424 30.8153 160.499 30.6706C160.575 30.5258 160.686 30.4026 160.821 30.3122C161.11 30.105 161.499 30.0017 161.989 30.0024C162.24 30.0025 162.492 30.0311 162.737 30.0876C162.952 30.1309 163.158 30.2076 163.349 30.3151L163.022 30.9628C162.707 30.7787 162.347 30.6843 161.982 30.6897C161.786 30.6784 161.59 30.7171 161.413 30.802C161.357 30.8286 161.309 30.8704 161.274 30.9227C161.24 30.975 161.221 31.0358 161.22 31.0983C161.217 31.1628 161.236 31.2265 161.273 31.2791C161.311 31.3317 161.365 31.3703 161.427 31.3887C161.635 31.4638 161.851 31.5176 162.07 31.5494C162.311 31.5843 162.55 31.6363 162.784 31.7053C162.969 31.7621 163.135 31.8655 163.268 32.0054C163.411 32.1711 163.483 32.3863 163.469 32.6047C163.472 32.7675 163.432 32.9282 163.355 33.0713C163.277 33.2144 163.164 33.3351 163.026 33.4218C162.732 33.6257 162.33 33.728 161.822 33.7287C161.53 33.7289 161.239 33.6895 160.958 33.6115Z" fill="white"/>
  <path d="M64.2113 13.4607C64.2199 14.2504 64.0957 15.0358 63.8439 15.7842C63.6057 16.4815 63.1994 17.1093 62.6612 17.612C62.119 18.1231 61.4147 18.5217 60.5482 18.8076C59.6817 19.0935 58.6279 19.2368 57.3869 19.2374H49.8439V24.5621H45.2988V7.70818H57.383C58.6247 7.70818 59.6785 7.8492 60.5443 8.13124C61.4101 8.41329 62.1145 8.80989 62.6573 9.32105C63.1944 9.82209 63.6005 10.4474 63.84 11.1421C64.0936 11.8884 64.2191 12.6724 64.2113 13.4607ZM59.6169 13.5343C59.625 13.1897 59.5689 12.8466 59.4516 12.5226C59.3429 12.2423 59.1529 12.0009 58.9061 11.8294C58.606 11.6303 58.2683 11.4945 57.9139 11.4306C57.4171 11.3366 56.9119 11.2935 56.4063 11.3018H49.8352V15.6438H56.4025C56.907 15.6503 57.4112 15.6156 57.9101 15.5402C58.2618 15.4911 58.5995 15.3698 58.9023 15.184C59.1472 15.0266 59.3377 14.7974 59.4477 14.5276C59.5663 14.2102 59.6224 13.873 59.613 13.5343H59.6169Z" fill="white"/>
  <path d="M83.6488 21.3721H74.2685L72.6883 24.5611H67.6104L76.4201 7.70818H81.4933L90.3031 24.5611H85.2299L83.6488 21.3721ZM75.8921 18.0805H82.0435L78.9799 11.874L75.8921 18.0805Z" fill="white"/>
  <path d="M96.0708 24.5611V7.70818H100.616V24.5611H96.0708Z" fill="white"/>
  <path d="M130.301 24.5611V12.7249L124.053 24.5611H119.691L113.442 12.7249V24.5611H108.896V7.70818H115.071L121.871 20.465L128.672 7.70818H134.823V24.5611H130.301Z" fill="white"/>
  <path d="M156.629 21.3721H147.244L145.664 24.5611H140.591L149.401 7.70816H154.474L163.283 24.5611H158.208L156.629 21.3721ZM148.874 18.0805H155.025L151.961 11.874L148.874 18.0805Z" fill="white"/>
  <path d="M15.0043 1.16821C8.01355 1.32795 2.20064 5.78999 0.305225 11.9143C0.0189792 10.7458 -0.227618 7.11921 0.353577 6.08913C1.78384 3.54977 6.74769 -0.189084 12.9919 0.00744266C14.4841 0.052944 17.4161 0.633812 17.7188 1.22243C17.7565 1.29503 16.2392 1.14014 15.0043 1.16821Z" fill="white"/>
  <path d="M37.392 24.4678L37.3679 24.4581C37.3571 24.4513 37.3454 24.4464 37.333 24.4436C37.3192 24.4421 37.3056 24.4392 37.2924 24.4349C37.2766 24.4339 37.2608 24.4339 37.245 24.4349C37.2296 24.4349 37.2141 24.4349 37.1957 24.4349H37.1435H37.0884C37.071 24.4349 37.0507 24.4426 37.0313 24.4445C36.9926 24.4542 36.9549 24.4591 36.9153 24.4716C36.8338 24.4956 36.754 24.525 36.6764 24.5597C36.5947 24.5937 36.5153 24.6328 36.4385 24.6769C36.3575 24.7189 36.2788 24.7651 36.2026 24.8153L35.9734 24.9683L35.75 25.1387L35.6378 25.2248L35.5305 25.3158L35.3138 25.4998C35.1707 25.6256 35.0353 25.7592 34.8941 25.887L34.4667 26.2888C34.3236 26.4224 34.1766 26.5473 34.0257 26.676C33.4292 27.1807 32.7931 27.6366 32.1236 28.0391C31.7919 28.2424 31.4466 28.4264 31.1024 28.6016C30.7554 28.7761 30.3986 28.9303 30.0338 29.0634C30.3873 28.9065 30.7315 28.7294 31.0646 28.5329C31.3973 28.3393 31.7242 28.1321 32.0385 27.9084C32.6695 27.469 33.2642 26.9795 33.8169 26.4447C33.9532 26.3091 34.0925 26.1784 34.2221 26.038L34.6156 25.616C34.7501 25.4736 34.8806 25.3255 35.0199 25.1871L35.2326 24.9799L35.34 24.8763L35.4521 24.7795L35.6775 24.5859L35.9202 24.401C36.0016 24.3392 36.0862 24.2817 36.1736 24.2286C36.2615 24.1702 36.3529 24.1172 36.4472 24.0699C36.5915 23.9989 36.7412 23.9397 36.895 23.8927C36.8982 23.8915 36.9011 23.8895 36.9033 23.8868C36.9056 23.8842 36.9071 23.881 36.9078 23.8777C36.9084 23.8743 36.9082 23.8707 36.9072 23.8675C36.9061 23.8642 36.9043 23.8612 36.9017 23.8588C34.9183 22.0068 33.8981 24.1057 30.5618 24.1493C30.1952 24.154 29.8288 24.133 29.4652 24.0863L29.4091 24.0796C27.2235 23.7891 24.4984 22.6187 23.2393 21.6593C22.574 21.1491 22.045 20.7008 21.6601 20.4646C21.5306 20.372 21.3794 20.3143 21.2211 20.2971C20.554 20.3079 19.8882 20.358 19.227 20.4472L10.6919 20.4133C10.4191 20.414 10.1494 20.4713 9.89975 20.5814C9.65011 20.6915 9.42594 20.8522 9.24131 21.0532C9.0955 21.2152 8.92315 21.3511 8.73168 21.455C8.43994 21.6081 8.11424 21.6847 7.78494 21.6777C7.28691 21.6777 6.56646 21.4531 5.96496 20.3862C5.59555 19.7289 5.31898 18.8208 5.16425 17.7578C4.92281 15.9949 5.00177 14.2028 5.39731 12.468C5.88083 10.465 6.76858 9.1464 7.95321 8.65944C9.75095 7.91786 11.011 8.52197 12.2276 9.10477C13.1946 9.57044 14.1994 10.0516 15.6683 10.0516C17.1372 10.0516 18.1401 9.56753 19.11 9.10477C20.3266 8.5239 21.5847 7.91786 23.3844 8.65944C24.57 9.1435 25.4519 10.465 25.9403 12.468C26.3365 14.2027 26.4151 15.995 26.1724 17.7578C26.0186 18.8227 25.742 19.7289 25.3716 20.3862C25.225 20.654 25.0418 20.9 24.8272 21.1171C24.7999 21.1423 24.7785 21.1733 24.7646 21.2078C24.7508 21.2423 24.7448 21.2794 24.7471 21.3165C24.7494 21.3536 24.76 21.3897 24.778 21.4222C24.7961 21.4547 24.8211 21.4828 24.8514 21.5044C25.683 22.1017 27.1056 22.7261 28.4101 23.0979C28.7002 23.1821 28.9903 23.2508 29.2659 23.3051L29.2921 23.3118C29.4506 23.3419 29.6063 23.3699 29.7524 23.3903L29.7572 23.3815L29.8114 23.3874C30.7846 23.4723 31.7651 23.3938 32.7125 23.155C32.3721 21.0039 31.4795 19.0957 31.143 18.5623C31.1138 18.5108 31.078 18.4633 31.0366 18.4209C30.6907 18.941 30.2505 19.3915 29.7388 19.7492C30.7668 18.2544 31.4302 17.8343 31.1043 15.2804C30.7738 12.071 29.4513 9.04488 27.3212 6.62369C25.1911 4.2025 22.3596 2.50691 19.2212 1.77325L19.1545 1.75776L18.9949 1.72194C18.9147 1.70548 18.8354 1.68805 18.7551 1.67256L18.465 1.61738L18.4195 1.60964C18.3161 1.59124 18.2107 1.57382 18.1053 1.55736C18.0337 1.54671 17.9612 1.53509 17.8886 1.52638C17.8161 1.51767 17.76 1.50798 17.6952 1.50024L17.5018 1.47604C17.3722 1.46151 17.2417 1.44893 17.115 1.43634L16.9216 1.41989C16.5251 1.38891 16.1247 1.37342 15.7205 1.37342C13.3931 1.36856 11.0949 1.89187 8.99859 2.904C8.82967 2.98533 8.66205 3.0702 8.49572 3.15862C8.38548 3.21767 8.2762 3.2777 8.16596 3.33869L8.02574 3.41904C7.73885 3.58362 7.45679 3.75788 7.17957 3.94182L7.00067 4.06574C6.94361 4.10446 6.88656 4.14319 6.83047 4.18385C6.77438 4.22451 6.70959 4.26904 6.64963 4.31261C5.49202 5.15016 4.45554 6.14381 3.56959 7.26536C3.57636 7.25471 3.58119 7.24406 3.58796 7.23341C2.54814 8.53923 1.72617 10.0048 1.15391 11.5735H1.16745C1.16261 11.5851 1.15874 11.5996 1.15391 11.6122C1.14907 11.6248 1.12586 11.6616 1.10846 11.6993C1.0732 11.7794 1.04474 11.8623 1.02336 11.9472C1.01272 11.9859 1.00305 12.0294 0.994345 12.0749C-0.271909 15.9845 0.0642391 20.2375 1.92891 23.899C3.79358 27.5606 7.03418 30.3312 10.9385 31.6018C13.0321 28.3576 16.177 26.6809 18.9853 25.5249C15.676 27.4902 15.9091 29.3664 16.9361 31.0684C16.3491 30.716 15.266 29.1321 15.266 29.1321C15.266 29.1321 13.7613 29.6288 12.0883 31.9261C12.0757 31.9435 12.0632 31.96 12.0516 31.9774C11.6117 32.593 11.2177 33.2402 10.8727 33.9137C10.3737 38.6942 18.5172 41.099 17.4042 39.5152C16.2911 37.9313 18.2581 32.5205 18.2581 32.5205C18.2581 32.5205 19.1332 34.1111 23.0043 34.0889C26.8754 34.0666 31.642 32.2378 33.7153 30.8573C34.8719 30.0857 38.5167 26.6228 37.392 24.4678ZM26.8377 27.7109C26.6742 27.7989 26.4864 27.8307 26.3031 27.8015C26.1198 27.7723 25.9511 27.6837 25.8229 27.5493C25.6948 27.4149 25.6142 27.2421 25.5935 27.0574C25.5729 26.8728 25.6133 26.6864 25.7086 26.527C25.8039 26.3676 25.9489 26.2438 26.1212 26.1748C26.2935 26.1057 26.4837 26.0951 26.6626 26.1447C26.8414 26.1943 26.9991 26.3012 27.1115 26.4491C27.2238 26.597 27.2846 26.7778 27.2845 26.9636C27.2852 27.0864 27.2584 27.2078 27.2061 27.3189C27.1292 27.4862 26.9999 27.6239 26.8377 27.7109Z" fill="white"/>
  <path d="M27.2826 26.9647C27.2828 27.1331 27.2331 27.2978 27.1397 27.4379C27.0464 27.578 26.9137 27.6872 26.7583 27.7517C26.6029 27.8162 26.4319 27.8332 26.267 27.8004C26.102 27.7676 25.9504 27.6865 25.8315 27.5674C25.7126 27.4483 25.6316 27.2966 25.5988 27.1315C25.566 26.9663 25.583 26.7951 25.6474 26.6396C25.7119 26.4841 25.821 26.3512 25.9609 26.2577C26.1008 26.1643 26.2653 26.1145 26.4335 26.1147C26.6587 26.1147 26.8747 26.2043 27.0339 26.3637C27.1931 26.5231 27.2826 26.7393 27.2826 26.9647Z" fill="black"/>
  <path d="M20.2569 15.4777C20.6366 15.4777 20.9445 15.1696 20.9445 14.7894C20.9445 14.4093 20.6366 14.1011 20.2569 14.1011C19.8772 14.1011 19.5693 14.4093 19.5693 14.7894C19.5693 15.1696 19.8772 15.4777 20.2569 15.4777Z" fill="white"/>
  <path d="M22.7066 15.4777C23.0863 15.4777 23.3942 15.1696 23.3942 14.7894C23.3942 14.4093 23.0863 14.1011 22.7066 14.1011C22.3269 14.1011 22.019 14.4093 22.019 14.7894C22.019 15.1696 22.3269 15.4777 22.7066 15.4777Z" fill="white"/>
  <path d="M21.481 14.2525C21.8608 14.2525 22.1686 13.9443 22.1686 13.5642C22.1686 13.184 21.8608 12.8759 21.481 12.8759C21.1013 12.8759 20.7935 13.184 20.7935 13.5642C20.7935 13.9443 21.1013 14.2525 21.481 14.2525Z" fill="white"/>
  <path d="M21.481 16.7044C21.8608 16.7044 22.1686 16.3962 22.1686 16.0161C22.1686 15.6359 21.8608 15.3277 21.481 15.3277C21.1013 15.3277 20.7935 15.6359 20.7935 16.0161C20.7935 16.3962 21.1013 16.7044 21.481 16.7044Z" fill="white"/>
  <path d="M11.0337 14.1016H10.496V13.5633C10.4995 13.4708 10.4843 13.3786 10.4513 13.2921C10.4183 13.2056 10.3683 13.1267 10.3041 13.06C10.24 12.9933 10.1631 12.9403 10.078 12.9041C9.99289 12.8679 9.90138 12.8492 9.80892 12.8492C9.71645 12.8492 9.62494 12.8679 9.53985 12.9041C9.45476 12.9403 9.37784 12.9933 9.3137 13.06C9.24956 13.1267 9.1995 13.2056 9.16654 13.2921C9.13357 13.3786 9.11836 13.4708 9.12183 13.5633V14.1016H8.58415C8.40639 14.1083 8.23812 14.1837 8.11472 14.3119C7.99131 14.4402 7.92236 14.6113 7.92236 14.7894C7.92236 14.9675 7.99131 15.1387 8.11472 15.2669C8.23812 15.3952 8.40639 15.4706 8.58415 15.4773H9.12183V16.0156C9.1285 16.1935 9.20381 16.362 9.33193 16.4855C9.46006 16.6091 9.63102 16.6781 9.80892 16.6781C9.98681 16.6781 10.1578 16.6091 10.2859 16.4855C10.414 16.362 10.4893 16.1935 10.496 16.0156V15.4773H11.0337C11.1261 15.4808 11.2182 15.4655 11.3046 15.4325C11.391 15.3995 11.4698 15.3494 11.5364 15.2852C11.603 15.221 11.656 15.144 11.6922 15.0588C11.7284 14.9736 11.747 14.882 11.747 14.7894C11.747 14.6969 11.7284 14.6053 11.6922 14.5201C11.656 14.4349 11.603 14.3579 11.5364 14.2937C11.4698 14.2295 11.391 14.1794 11.3046 14.1463C11.2182 14.1133 11.1261 14.0981 11.0337 14.1016Z" fill="white"/>
</svg>